<svg id="Layer_1" data-name="Layer 1" xmlns="http://www.w3.org/2000/svg" viewBox="0 0 270.12 117.7"><defs><style>.cls-1{fill:#21b097;}</style></defs><title>VERSUSMobile_Logotipo_VersionPrincipal</title><path class="cls-1" d="M159.15,71.7a1,1,0,0,1-.56.93,2.61,2.61,0,0,1-1.14.27h-4a1.19,1.19,0,0,1-.87-0.37,1.15,1.15,0,0,1-.37-0.83V38.19a1,1,0,0,1,.52-1A2.72,2.72,0,0,1,154,37h4a1.23,1.23,0,0,1,1.16,1.2,0.92,0.92,0,0,1-.54.91,2.64,2.64,0,0,1-1.12.25h-2.79V70.49h2.79a2.57,2.57,0,0,1,1.16.25A1,1,0,0,1,159.15,71.7Z"/><path class="cls-1" d="M165.16,50.06a13.23,13.23,0,0,1,2.89-1.4,9.46,9.46,0,0,1,3-.5,5.81,5.81,0,0,1,2.66.56,5.7,5.7,0,0,1,1.92,1.61,12.64,12.64,0,0,1,2.79-1.59,8.08,8.08,0,0,1,3.06-.58,6,6,0,0,1,4.71,1.8,6.81,6.81,0,0,1,1.61,4.71V67.16a1.27,1.27,0,0,1-.29.87,1.21,1.21,0,0,1-.95.33,1.29,1.29,0,0,1-.95-0.33,1.18,1.18,0,0,1-.33-0.87V54.75a5,5,0,0,0-.95-3.08,3.48,3.48,0,0,0-3-1.26,5.69,5.69,0,0,0-2.64.66,6,6,0,0,0-2.05,1.67q0.08,0.43.14,0.91a8.66,8.66,0,0,1,.06,1V67.16a1.27,1.27,0,0,1-.29.87,1.21,1.21,0,0,1-.95.33,1.28,1.28,0,0,1-1-.33,1.22,1.22,0,0,1-.31-0.87V55.57a14.75,14.75,0,0,0-.14-2.07,4.84,4.84,0,0,0-.5-1.63,2.63,2.63,0,0,0-1.09-1.07,4,4,0,0,0-1.88-.39,7,7,0,0,0-2.68.54,10.26,10.26,0,0,0-2.25,1.24,8.49,8.49,0,0,1,.12,1.4V67.16a1.11,1.11,0,0,1-1.24,1.2,1.27,1.27,0,0,1-1-.33,1.22,1.22,0,0,1-.31-0.87V53.59a8.82,8.82,0,0,0-.14-1.69,3.16,3.16,0,0,0-.56-1.26,1,1,0,0,1-.23-0.66,1,1,0,0,1,.35-0.81,1.14,1.14,0,0,1,.78-0.31,1.44,1.44,0,0,1,.79.27A2.23,2.23,0,0,1,165.16,50.06Z"/><path class="cls-1" d="M199.59,68.4a8.42,8.42,0,0,1-3.08-.52,6.45,6.45,0,0,1-2.25-1.43,6,6,0,0,1-1.38-2.15,7.56,7.56,0,0,1-.47-2.68V54.95a7.56,7.56,0,0,1,.47-2.68,6.15,6.15,0,0,1,1.38-2.17,6.32,6.32,0,0,1,2.25-1.45,8.42,8.42,0,0,1,3.08-.52,8.57,8.57,0,0,1,3.1.52,6.11,6.11,0,0,1,2.25,1.45,6.3,6.3,0,0,1,1.36,2.17,7.56,7.56,0,0,1,.47,2.68v6.67a7.56,7.56,0,0,1-.47,2.68,6.09,6.09,0,0,1-1.36,2.15,6.23,6.23,0,0,1-2.25,1.43A8.57,8.57,0,0,1,199.59,68.4Zm0-2.29a4.65,4.65,0,0,0,3.49-1.2,4.54,4.54,0,0,0,1.16-3.3V54.91a4.66,4.66,0,1,0-9.31,0v6.71a4.54,4.54,0,0,0,1.16,3.3A4.65,4.65,0,0,0,199.59,66.11Z"/><path class="cls-1" d="M211.54,40.95a1.29,1.29,0,0,1,.33-0.85,1.18,1.18,0,0,1,.95-0.39,1.12,1.12,0,0,1,.93.39,1.34,1.34,0,0,1,.31.85v9.11a11.15,11.15,0,0,1,2.68-1.41,8.83,8.83,0,0,1,3-.48,7.06,7.06,0,0,1,2.73.46,4.67,4.67,0,0,1,2.81,3.14,8.44,8.44,0,0,1,.31,2.33v7.52a7.86,7.86,0,0,1-.45,2.68,6,6,0,0,1-1.32,2.15,6.12,6.12,0,0,1-2.17,1.43,8.11,8.11,0,0,1-3,.52,8.89,8.89,0,0,1-3-.46,6.62,6.62,0,0,1-2.21-1.28,5.35,5.35,0,0,1-1.38-1.9,5.84,5.84,0,0,1-.46-2.33V40.95Zm2.52,21.48a3.27,3.27,0,0,0,1.22,2.71,5.19,5.19,0,0,0,3.32,1,4.32,4.32,0,0,0,3.39-1.2,4.79,4.79,0,0,0,1.07-3.3V54.09a3.92,3.92,0,0,0-1-2.83,4.2,4.2,0,0,0-3.14-1,6.08,6.08,0,0,0-2.75.6,7.37,7.37,0,0,0-2.13,1.61v10Z"/><path class="cls-1" d="M233.68,41.72a1.59,1.59,0,0,1-1.59,1.59,1.58,1.58,0,0,1-1.16-.47,1.53,1.53,0,0,1-.47-1.12,1.59,1.59,0,0,1,1.63-1.63,1.53,1.53,0,0,1,1.12.47A1.58,1.58,0,0,1,233.68,41.72Zm-0.35,25.44a1.17,1.17,0,0,1-.37.89,1.23,1.23,0,0,1-.87.35,1.27,1.27,0,0,1-.91-0.35,1.17,1.17,0,0,1-.37-0.89V49.56a1.26,1.26,0,0,1,1.28-1.28,1.19,1.19,0,0,1,.87.37,1.24,1.24,0,0,1,.37.91v17.6Z"/><path class="cls-1" d="M240,41a1.3,1.3,0,0,1,.35-0.89,1.15,1.15,0,0,1,.89-0.39,1.18,1.18,0,0,1,.89.37,1.28,1.28,0,0,1,.35.91V64.64a2.92,2.92,0,0,0,.7,2.09,1,1,0,0,1,.16.54,1.06,1.06,0,0,1-1.12,1.12,2.46,2.46,0,0,1-.7-0.12,1.53,1.53,0,0,1-.72-0.5,3.24,3.24,0,0,1-.56-1.14,7,7,0,0,1-.23-2V41Z"/><path class="cls-1" d="M254.77,66.27a6.9,6.9,0,0,0,2.29-.33q0.93-.33,2-0.8l0.19-.08a0.74,0.74,0,0,1,.23,0,1,1,0,0,1,.78.33,1.07,1.07,0,0,1,.31.76,1.3,1.3,0,0,1-.68,1.11,5.52,5.52,0,0,1-1.63.7,13.67,13.67,0,0,1-2,.37,17.34,17.34,0,0,1-1.84.12,8.17,8.17,0,0,1-2.91-.48,6.14,6.14,0,0,1-2.15-1.34,5.61,5.61,0,0,1-1.32-2,6.83,6.83,0,0,1-.45-2.5V54.63a7,7,0,0,1,.47-2.58A5.82,5.82,0,0,1,249.38,50a6.15,6.15,0,0,1,2.21-1.36,8.74,8.74,0,0,1,3-.48,6.12,6.12,0,0,1,4.73,1.69,6.42,6.42,0,0,1,1.55,4.52,5.54,5.54,0,0,1-1.51,4.13Q257.87,60,254.46,60q-1,0-2.11-.1a19,19,0,0,1-2.27-.33v2.75a3.71,3.71,0,0,0,1.18,2.87A5,5,0,0,0,254.77,66.27Zm3.64-11.9a4,4,0,0,0-1-3.06,4.15,4.15,0,0,0-2.89-.93,4.64,4.64,0,0,0-3.26,1.07,3.73,3.73,0,0,0-1.16,2.89v3.3l1.3,0.14,1.3,0.1,1.12,0.06,0.81,0a5.22,5.22,0,0,0,2-.31,2.94,2.94,0,0,0,1.16-.8,2.54,2.54,0,0,0,.54-1.12A6.43,6.43,0,0,0,258.41,54.36Z"/><path class="cls-1" d="M269.79,72.55a1.1,1.1,0,0,1-.83.35h-4.07a2.77,2.77,0,0,1-1.22-.27,1.09,1.09,0,0,1,0-1.9,3,3,0,0,1,1.2-.23h2.75V39.32h-2.75a3.06,3.06,0,0,1-1.18-.23,0.91,0.91,0,0,1-.56-0.93,1,1,0,0,1,.56-0.95,3,3,0,0,1,1.22-.25H269a1.09,1.09,0,0,1,.79.39,1.22,1.22,0,0,1,.37.85V71.7A1.2,1.2,0,0,1,269.79,72.55Z"/><path class="cls-1" d="M45.52,79H0V0H45.52V79ZM1.63,77.38H43.89V1.63H1.63V77.38Z"/><path class="cls-1" d="M89.41,117.7H43.89v-79H89.41v79Zm-43.89-1.63H87.78V40.32H45.52v75.75Z"/><path class="cls-1" d="M133.35,79H87.84V0h45.52V79ZM89.47,77.38h42.26V1.63H89.47V77.38Z"/><path class="cls-1" d="M71.56,65.23a5.46,5.46,0,0,0-.23-1.68,4.65,4.65,0,0,0-.58-1.21A3.7,3.7,0,0,0,70,61.51,5.06,5.06,0,0,0,69.17,61q-0.62-.31-1.43-0.62l-1.66-.62q-1.27-.42-2.53-0.93a9,9,0,0,1-2.27-1.31,5.91,5.91,0,0,1-1.64-2.06A7.18,7.18,0,0,1,59,52.28a7.14,7.14,0,0,1,2.06-5.45,7.9,7.9,0,0,1,5.65-1.95q0.69,0,1.79.1a12.64,12.64,0,0,1,2.12.37,6.27,6.27,0,0,1,1.75.73,1.38,1.38,0,0,1,.73,1.2,1.19,1.19,0,0,1-1.27,1.19,2.64,2.64,0,0,1-.67-0.1,3.42,3.42,0,0,1-.67-0.25A15.62,15.62,0,0,0,69,47.6a7.27,7.27,0,0,0-2-.25,8.14,8.14,0,0,0-1.95.23,4.66,4.66,0,0,0-1.68.77,3.87,3.87,0,0,0-1.18,1.45,5.21,5.21,0,0,0-.44,2.29A5.32,5.32,0,0,0,62,53.84,4.33,4.33,0,0,0,62.6,55a3.25,3.25,0,0,0,.81.77q0.44,0.29.79,0.48,0.66,0.31,1.46.64t1.62,0.6q1.23,0.42,2.49.93A8.18,8.18,0,0,1,72,59.8,6.31,6.31,0,0,1,74.3,65a8.35,8.35,0,0,1-.64,3.35,7.13,7.13,0,0,1-1.73,2.47,7.34,7.34,0,0,1-2.64,1.52,10.31,10.31,0,0,1-3.32.52,19.2,19.2,0,0,1-2.12-.14,14,14,0,0,1-2.27-.44,6.49,6.49,0,0,1-1.83-.81,1.43,1.43,0,0,1-.75-1.2,1.29,1.29,0,0,1,.35-0.89A1.06,1.06,0,0,1,60.15,69a2.15,2.15,0,0,1,.6.14l0.83,0.29q0.77,0.31,1.85.64a9,9,0,0,0,2.58.33A5.75,5.75,0,0,0,70.18,69,5,5,0,0,0,71.56,65.23Z"/><path class="cls-1" d="M113.21,70.27a2.45,2.45,0,0,1-.76,1.79,2.5,2.5,0,0,1-1.83.76,2.54,2.54,0,0,1-1.87-.76,2.45,2.45,0,0,1-.76-1.79,2.34,2.34,0,0,1,.76-1.73,2.57,2.57,0,0,1,1.87-.74,2.53,2.53,0,0,1,1.83.74A2.35,2.35,0,0,1,113.21,70.27Z"/><path class="cls-1" d="M22.76,68.66L29.7,45.84a1.22,1.22,0,0,1,.5-0.69,1.29,1.29,0,0,1,.73-0.27,1.39,1.39,0,0,1,1,.35,1.19,1.19,0,0,1,.39.93,3,3,0,0,1,0,.33c0,0.12,0,.19,0,0.21L24.57,71a4.83,4.83,0,0,1-.67,1.31,1.51,1.51,0,0,1-2.29,0A4.12,4.12,0,0,1,21,71L13.31,46.69a1.69,1.69,0,0,1-.08-0.54,1.16,1.16,0,0,1,.4-0.93,1.41,1.41,0,0,1,.94-0.35,1.09,1.09,0,0,1,.67.31,2.39,2.39,0,0,1,.56.65Z"/></svg>