<svg id="Layer_2" data-name="Layer 2" xmlns="http://www.w3.org/2000/svg" viewBox="0 0 206.47 225.3"><defs><style>.cls-1{fill:#f29b24;}</style></defs><title>VERSUSMobile_Icon_Taza</title><path class="cls-1" d="M161.53,225.3H29a29,29,0,0,1-29-29v-3H190.53v3A29,29,0,0,1,161.53,225.3ZM6.19,199.3A23,23,0,0,0,29,219.3H161.53a23,23,0,0,0,22.81-20H6.19Z"/><path class="cls-1" d="M138.69,197.64a3,3,0,0,1-2.14-5.1c19.06-19.47,31.08-54.48,31.7-91.9h-146c0.61,37.42,12.64,72.43,31.7,91.9a3,3,0,0,1-4.29,4.2c-20.94-21.39-33.43-58.44-33.43-99.1v-3h158v3c0,40.66-12.5,77.71-33.43,99.1A3,3,0,0,1,138.69,197.64Z"/><path class="cls-1" d="M138.69,197.64a3,3,0,0,1-2.14-5.1c19.06-19.47,31.08-54.48,31.7-91.9h-146c0.61,37.42,12.64,72.43,31.7,91.9a3,3,0,0,1-4.29,4.2c-20.94-21.39-33.43-58.44-33.43-99.1v-3h158v3c0,40.66-12.5,77.71-33.43,99.1A3,3,0,0,1,138.69,197.64Z"/><path class="cls-1" d="M178.1,167a27.48,27.48,0,0,1-17.89-6.72,3,3,0,1,1,3.91-4.55,21.19,21.19,0,0,0,14,5.27c12.33,0,22.36-10.77,22.36-24s-10-24-22.36-24a21.07,21.07,0,0,0-4.68.53,3,3,0,0,1-1.34-5.85,27.08,27.08,0,0,1,6-.68c15.64,0,28.36,13.46,28.36,30S193.74,167,178.1,167Z"/><path class="cls-1" d="M99.48,83.72a3,3,0,0,1-1.59-.46c-1.35-.85-2.82-1.64-4.37-2.48C87.4,77.46,80.47,73.71,80.47,65.7s6.93-11.76,13-15.07,9.91-5.66,9.91-9.8-3.74-6.46-9.9-9.79S80.47,24,80.47,16,87.4,4.21,93.52.9l1-.53a3,3,0,0,1,2.87,5.27l-1,.54c-6.16,3.34-9.91,5.66-9.91,9.79s3.74,6.46,9.91,9.8,13,7.07,13,15.07-6.93,11.76-13,15.07-9.9,5.66-9.9,9.8,3.74,6.46,9.91,9.8c1.56,0.85,3.18,1.72,4.7,2.67A3,3,0,0,1,99.48,83.72Z"/><path class="cls-1" d="M167.47,133.47H104.72a3,3,0,0,1,0-6h62.75A3,3,0,0,1,167.47,133.47Z"/><path class="cls-1" d="M157.13,167.44H104.72a3,3,0,0,1,0-6h52.41A3,3,0,0,1,157.13,167.44Z"/><path class="cls-1" d="M162.47,150.45H122.13a3,3,0,0,1,0-6h40.34A3,3,0,0,1,162.47,150.45Z"/><path class="cls-1" d="M167.47,116.48H127.13a3,3,0,1,1,0-6h40.34A3,3,0,0,1,167.47,116.48Z"/><path class="cls-1" d="M147.13,184.42h-25a3,3,0,0,1,0-6h25A3,3,0,0,1,147.13,184.42Z"/></svg>