<svg id="Layer_2" data-name="Layer 2" xmlns="http://www.w3.org/2000/svg" viewBox="0 0 141.33 229.65"><defs><style>.cls-1{fill:#f29b24;}</style></defs><title>VERSUSMobile_Icon_Corbata</title><path class="cls-1" d="M81.65,43H21.91L30,0H73.51Zm-52.5-6H74.41L68.54,6H35Z"/><path class="cls-1" d="M53.52,229.65H50l-50-50L30.95,37H72.61l7.81,36a3,3,0,1,1-5.86,1.27L67.77,43h-32L6.56,177.69l45.22,45.22L97,177.69,78.17,90.94A3,3,0,0,1,84,89.66l19.52,90Z"/><path class="cls-1" d="M115.45,167.47L90.81,142.84a3,3,0,1,1,4.24-4.24l22.75,22.75,17-.86-1.38-14.35L80,92.8a3,3,0,1,1,4.24-4.24l54.86,54.86,2.19,22.74Z"/><path class="cls-1" d="M88.39,92H51a10.3,10.3,0,0,1,0-20.6h37.4A10.3,10.3,0,1,1,88.39,92ZM51,77.38A4.3,4.3,0,0,0,51,86h37.4a4.3,4.3,0,1,0,0-8.6H51Z"/></svg>