<svg id="Layer_2" data-name="Layer 2" xmlns="http://www.w3.org/2000/svg" viewBox="0 0 199.56 229.58"><defs><style>.cls-1{fill:#e74b4d;}</style></defs><title>VERSUSMobile_Icon_Bombilla</title><path class="cls-1" d="M133.88,181.53H71.23v-3a61.62,61.62,0,0,0-10.52-34.17,59.25,59.25,0,1,1,83.69,0,61.62,61.62,0,0,0-10.51,34.17v3Zm-56.73-6H128a67.84,67.84,0,0,1,11.63-34.76l0.17-.25,0.21-.21a53.25,53.25,0,1,0-74.82,0l0.21,0.21,0.17,0.25A67.86,67.86,0,0,1,77.16,175.53Z"/><path class="cls-1" d="M112.33,229.58H92.78c-11.84,0-21.47-10-21.47-22.4V181.5a3,3,0,1,1,6,0v25.68c0,9,6.94,16.4,15.47,16.4h19.55c8.53,0,15.47-7.36,15.47-16.4V181.5a3,3,0,1,1,6,0v25.68C133.8,219.53,124.17,229.58,112.33,229.58Z"/><path class="cls-1" d="M101.57,180.81a3,3,0,0,1-.72-5.91l1-.24c3.21-.79,9-2.21,10.51-3.49-1.53-1.28-7.3-2.7-10.51-3.49-7.86-1.93-15.28-3.76-15.28-9.31v-0.28c0-5.56,7.42-7.39,15.28-9.33,3.21-.79,9-2.21,10.51-3.49-1.53-1.28-7.3-2.7-10.51-3.49C94,139.85,86.56,138,86.56,132.47s7.42-7.38,15.28-9.31c3.21-.79,9-2.21,10.51-3.49-1.53-1.28-7.3-2.7-10.51-3.49-7.86-1.93-15.28-3.76-15.28-9.31S94,99.5,101.84,97.56c3.39-.83,9.63-2.37,10.72-3.7a3,3,0,0,1,6,.22c0,5.55-7.42,7.38-15.28,9.31-3.21.79-9,2.21-10.51,3.49,1.53,1.28,7.3,2.7,10.5,3.49,7.86,1.93,15.28,3.76,15.29,9.31S111.13,127,103.27,129c-3.21.79-9,2.21-10.51,3.49,1.53,1.28,7.3,2.7,10.51,3.49,7.86,1.94,15.28,3.76,15.28,9.32s-7.42,7.38-15.28,9.32c-3.33.82-9.43,2.32-10.66,3.64,1.24,1.31,7.33,2.81,10.66,3.63,7.86,1.93,15.28,3.76,15.28,9.31s-7.42,7.38-15.29,9.31l-1,.24A3,3,0,0,1,101.57,180.81Z"/><path class="cls-1" d="M129.32,213.26H75.79a3,3,0,0,1,0-6h53.53A3,3,0,0,1,129.32,213.26Z"/><path class="cls-1" d="M130,198h-55a3,3,0,0,1,0-6h55A3,3,0,0,1,130,198Z"/><path class="cls-1" d="M24.33,104H3a3,3,0,0,1,0-6H24.33A3,3,0,0,1,24.33,104Z"/><path class="cls-1" d="M101.56,27.33a3,3,0,0,1-3-3V3a3,3,0,1,1,6,0V24.33A3,3,0,0,1,101.56,27.33Z"/><path class="cls-1" d="M22.12,170.88A3,3,0,0,1,20,165.75l15.08-15.08a3,3,0,1,1,4.24,4.24L24.24,170A3,3,0,0,1,22.12,170.88Z"/><path class="cls-1" d="M36.54,52.42a3,3,0,0,1-2.12-.88L19.34,36.45a3,3,0,1,1,4.24-4.24L38.66,47.29A3,3,0,0,1,36.54,52.42Z"/><path class="cls-1" d="M199.56,104H178.22a3,3,0,1,1,0-6h21.33A3,3,0,1,1,199.56,104Z"/><path class="cls-1" d="M180.43,170.88a3,3,0,0,1-2.12-.88l-15.08-15.08a3,3,0,0,1,4.24-4.24l15.08,15.08A3,3,0,0,1,180.43,170.88Z"/><path class="cls-1" d="M166,52.42a3,3,0,0,1-2.12-5.12L179,32.21a3,3,0,0,1,4.24,4.24L168.14,51.54A3,3,0,0,1,166,52.42Z"/></svg>